<svg id="SvgjsSvg1006" width="571.336356466877" height="700.7733778625955" xmlns="http://www.w3.org/2000/svg" version="1.1" xmlns:xlink="http://www.w3.org/1999/xlink" xmlns:svgjs="http://svgjs.com/svgjs"><defs id="SvgjsDefs1007"><pattern patternUnits="userSpaceOnUse" id="pattern_mark_0" width="300" height="300"><text x="150" y="100" fill="rgba(229,229,229,0.8)" font-size="18" transform="rotate(-45, 150, 150)" style="dominant-baseline: middle; text-anchor: middle;"></text></pattern><pattern patternUnits="userSpaceOnUse" id="pattern_mark_1" width="300" height="300"><text x="150" y="200" fill="rgba(229,229,229,0.8)" font-size="18" transform="rotate(-45, 150, 150)" style="dominant-baseline: middle; text-anchor: middle;"></text></pattern><marker id="SvgjsMarker1029" markerWidth="12" markerHeight="8" refX="9" refY="4" viewBox="0 0 12 8" orient="auto" markerUnits="userSpaceOnUse" stroke-dasharray="0,0"><path id="SvgjsPath1030" d="M0,0 L12,4 L0,8 L0,0" fill="#000000" stroke="#000000" stroke-width="1"></path></marker><marker id="SvgjsMarker1033" markerWidth="12" markerHeight="8" refX="9" refY="4" viewBox="0 0 12 8" orient="auto" markerUnits="userSpaceOnUse" stroke-dasharray="0,0"><path id="SvgjsPath1034" d="M0,0 L12,4 L0,8 L0,0" fill="#cc6600" stroke="#cc6600" stroke-width="1"></path></marker><marker id="SvgjsMarker1041" markerWidth="12" markerHeight="8" refX="9" refY="4" viewBox="0 0 12 8" orient="auto" markerUnits="userSpaceOnUse" stroke-dasharray="0,0"><path id="SvgjsPath1042" d="M0,0 L12,4 L0,8 L0,0" fill="#000000" stroke="#000000" stroke-width="1"></path></marker><marker id="SvgjsMarker1049" markerWidth="12" markerHeight="8" refX="9" refY="4" viewBox="0 0 12 8" orient="auto" markerUnits="userSpaceOnUse" stroke-dasharray="0,0"><path id="SvgjsPath1050" d="M0,0 L12,4 L0,8 L0,0" fill="#cc6600" stroke="#cc6600" stroke-width="1"></path></marker><marker id="SvgjsMarker1070" markerWidth="12" markerHeight="8" refX="9" refY="4" viewBox="0 0 12 8" orient="auto" markerUnits="userSpaceOnUse" stroke-dasharray="0,0"><path id="SvgjsPath1071" d="M0,0 L12,4 L0,8 L0,0" fill="#000000" stroke="#000000" stroke-width="1"></path></marker><marker id="SvgjsMarker1078" markerWidth="12" markerHeight="8" refX="9" refY="4" viewBox="0 0 12 8" orient="auto" markerUnits="userSpaceOnUse" stroke-dasharray="0,0"><path id="SvgjsPath1079" d="M0,0 L12,4 L0,8 L0,0" fill="#cc6600" stroke="#cc6600" stroke-width="1"></path></marker><marker id="SvgjsMarker1088" markerWidth="12" markerHeight="8" refX="9" refY="4" viewBox="0 0 12 8" orient="auto" markerUnits="userSpaceOnUse" stroke-dasharray="0,0"><path id="SvgjsPath1089" d="M0,0 L12,4 L0,8 L0,0" fill="#000000" stroke="#000000" stroke-width="1"></path></marker><marker id="SvgjsMarker1096" markerWidth="12" markerHeight="8" refX="9" refY="4" viewBox="0 0 12 8" orient="auto" markerUnits="userSpaceOnUse" stroke-dasharray="0,0"><path id="SvgjsPath1097" d="M0,0 L12,4 L0,8 L0,0" fill="#cc6600" stroke="#cc6600" stroke-width="1"></path></marker><marker id="SvgjsMarker1118" markerWidth="13" markerHeight="9" refX="9.5" refY="4.5" viewBox="0 0 13 9" orient="auto" markerUnits="userSpaceOnUse" stroke-dasharray="0,0"><path id="SvgjsPath1119" d="M0,0 L13,4.5 L0,9 L0,0" fill="#323232" stroke="#323232" stroke-width="1"></path></marker><marker id="SvgjsMarker1122" markerWidth="13" markerHeight="9" refX="9.5" refY="4.5" viewBox="0 0 13 9" orient="auto" markerUnits="userSpaceOnUse" stroke-dasharray="0,0"><path id="SvgjsPath1123" d="M0,0 L13,4.5 L0,9 L0,0" fill="#323232" stroke="#323232" stroke-width="1"></path></marker><marker id="SvgjsMarker1132" markerWidth="13" markerHeight="9" refX="9.5" refY="4.5" viewBox="0 0 13 9" orient="auto" markerUnits="userSpaceOnUse" stroke-dasharray="0,0"><path id="SvgjsPath1133" d="M0,0 L13,4.5 L0,9 L0,0" fill="#323232" stroke="#323232" stroke-width="1"></path></marker></defs><rect id="svgbackgroundid" width="571.336356466877" height="700.7733778625955" fill="transparent"></rect><rect id="SvgjsRect1009" width="571.336356466877" height="700.7733778625955" fill="url(#pattern_mark_0)"></rect><rect id="SvgjsRect1010" width="571.336356466877" height="700.7733778625955" fill="url(#pattern_mark_1)"></rect><g id="SvgjsG1011" transform="translate(210.27247634069397,26.5)"><path id="SvgjsPath1012" d="M 46.425078864353274 30L 46.425078864353274 649.2733778625957" stroke-dasharray="2,3" stroke="rgba(0,0,0,1)" stroke-width="2" fill="none"></path><path id="SvgjsPath1013" d="M 0 0L 92.85015772870655 0L 92.85015772870655 30L 0 30Z" stroke="rgba(0,0,0,1)" stroke-width="1" fill-opacity="1" fill="#ffffcc"></path><g id="SvgjsG1014"><text id="SvgjsText1015" font-family="&quot;Microsoft YaHei&quot;, 微软雅黑, Arial" text-anchor="middle" font-size="13px" width="73px" fill="#323232" font-weight="700" align="middle" lineHeight="125%" anchor="middle" family="&quot;Microsoft YaHei&quot;, 微软雅黑, Arial" size="13px" weight="700" font-style="" opacity="1" y="-4.125" transform="rotate(0)"><tspan id="SvgjsTspan1016" dy="16.25" x="46.5"><tspan id="SvgjsTspan1017" style="">Watermark</tspan></tspan><tspan id="SvgjsTspan1018" dy="16.25" x="46.5"><tspan id="SvgjsTspan1019" style="">Updater</tspan></tspan></text></g></g><g id="SvgjsG1020" transform="translate(395.54495268138794,26.5)"><path id="SvgjsPath1021" d="M 40.97594637223972 30L 40.97594637223972 649.2733778625957" stroke-dasharray="2,3" stroke="rgba(0,0,0,1)" stroke-width="2" fill="none"></path><path id="SvgjsPath1022" d="M 0 0L 81.95189274447944 0L 81.95189274447944 30L 0 30Z" stroke="rgba(0,0,0,1)" stroke-width="1" fill-opacity="1" fill="#ffffcc"></path><g id="SvgjsG1023"><text id="SvgjsText1024" font-family="&quot;Microsoft YaHei&quot;, 微软雅黑, Arial" text-anchor="middle" font-size="13px" width="62px" fill="#323232" font-weight="700" align="middle" lineHeight="125%" anchor="middle" family="&quot;Microsoft YaHei&quot;, 微软雅黑, Arial" size="13px" weight="700" font-style="" opacity="1" y="4.375" transform="rotate(0)"><tspan id="SvgjsTspan1025" dy="16.25" x="41"><tspan id="SvgjsTspan1026" style="">Disttae</tspan></tspan></text></g></g><g id="SvgjsG1027"><path id="SvgjsPath1028" d="M84.83635646687696 138.7733778625954L163.23304416403778 138.7733778625954L163.23304416403778 138.7733778625954L240.32973186119875 138.7733778625954" stroke="#000000" stroke-width="1" fill="none" marker-end="url(#SvgjsMarker1029)"></path></g><g id="SvgjsG1031"><path id="SvgjsPath1032" d="M236.33635646687696 163.7733778625954L160.33635646687696 163.7733778625954L160.33635646687696 163.7733778625954L86.13635646687698 163.7733778625954" stroke-dasharray="5,2" stroke="#cc6600" stroke-width="1" fill="none" marker-end="url(#SvgjsMarker1033)"></path><rect id="SvgjsRect1035" width="61" height="17" x="132.71267225635066" y="155.2733778625954" fill="#ffffff"></rect><text id="SvgjsText1036" font-family="&quot;Microsoft YaHei&quot;, 微软雅黑, Arial" text-anchor="middle" font-size="12px" width="61px" fill="#323232" font-weight="700" align="top" lineHeight="15px" anchor="middle" family="&quot;Microsoft YaHei&quot;, 微软雅黑, Arial" size="12px" weight="700" font-style="" opacity="1" y="152.7733778625954" transform="rotate(0)"><tspan id="SvgjsTspan1037" dy="15" x="163.21267225635066"><tspan id="SvgjsTspan1038" style="">watermark</tspan></tspan></text></g><g id="SvgjsG1039"><path id="SvgjsPath1040" d="M85.51380126182971 200.40696564885496L253.67507886435328 200.40696564885496L253.67507886435328 201.40696564885496L420.536356466877 201.40696564885496" stroke="#000000" stroke-width="1" fill="none" marker-end="url(#SvgjsMarker1041)"></path><rect id="SvgjsRect1043" width="89" height="17" x="211.16486532366488" y="192.90696564885496" fill="#ffffff"></rect><text id="SvgjsText1044" font-family="&quot;Microsoft YaHei&quot;, 微软雅黑, Arial" text-anchor="middle" font-size="12px" width="89px" fill="#323232" font-weight="700" align="top" lineHeight="15px" anchor="middle" family="&quot;Microsoft YaHei&quot;, 微软雅黑, Arial" size="12px" weight="700" font-style="" opacity="1" y="190.40696564885496" transform="rotate(0)"><tspan id="SvgjsTspan1045" dy="15" x="255.66486532366488"><tspan id="SvgjsTspan1046" style="">CollectChanges</tspan></tspan></text></g><g id="SvgjsG1047"><path id="SvgjsPath1048" d="M421.83635646687696 226.7733778625954L253.33635646687696 226.7733778625954L253.33635646687696 226.7733778625954L86.13635646687698 226.7733778625954" stroke-dasharray="5,2" stroke="#cc6600" stroke-width="1" fill="none" marker-end="url(#SvgjsMarker1049)"></path><rect id="SvgjsRect1051" width="47" height="17" x="230.4863564668769" y="218.2733778625954" fill="#ffffff"></rect><text id="SvgjsText1052" font-family="&quot;Microsoft YaHei&quot;, 微软雅黑, Arial" text-anchor="middle" font-size="12px" width="47px" fill="#323232" font-weight="700" align="top" lineHeight="15px" anchor="middle" family="&quot;Microsoft YaHei&quot;, 微软雅黑, Arial" size="12px" weight="700" font-style="" opacity="1" y="215.7733778625954" transform="rotate(0)"><tspan id="SvgjsTspan1053" dy="15" x="253.9863564668769"><tspan id="SvgjsTspan1054" style="">changes</tspan></tspan></text></g><g id="SvgjsG1055" transform="translate(241.69755520504725,125.7733778625954)"><path id="SvgjsPath1056" d="M 0 4Q 0 0 4 0L 26 0Q 30 0 30 4L 30 48Q 30 52 26 52L 4 52Q 0 52 0 48L 0 4Z" stroke="rgba(153,0,0,1)" stroke-width="1" fill-opacity="1" fill="#ffffff"></path></g><g id="SvgjsG1057" transform="translate(25,26.5)"><path id="SvgjsPath1058" d="M 46.425078864353274 30L 46.425078864353274 649.2733778625957" stroke-dasharray="2,3" stroke="rgba(0,0,0,1)" stroke-width="2" fill="none"></path><path id="SvgjsPath1059" d="M 0 0L 92.85015772870655 0L 92.85015772870655 30L 0 30Z" stroke="rgba(0,0,0,1)" stroke-width="1" fill-opacity="1" fill="#ffffff"></path><g id="SvgjsG1060"><text id="SvgjsText1061" font-family="&quot;Microsoft YaHei&quot;, 微软雅黑, Arial" text-anchor="middle" font-size="13px" width="73px" fill="#323232" font-weight="700" align="middle" lineHeight="125%" anchor="middle" family="&quot;Microsoft YaHei&quot;, 微软雅黑, Arial" size="13px" weight="700" font-style="" opacity="1" y="4.375" transform="rotate(0)"><tspan id="SvgjsTspan1062" dy="16.25" x="46.5"><tspan id="SvgjsTspan1063" style="">Reader</tspan></tspan></text></g></g><g id="SvgjsG1064" transform="translate(55.013801261829656,125.7733778625954)"><path id="SvgjsPath1065" d="M 0 4Q 0 0 4 0L 26 0Q 30 0 30 4L 30 500Q 30 504 26 504L 4 504Q 0 504 0 500L 0 4Z" stroke="rgba(153,0,0,1)" stroke-width="1" fill-opacity="1" fill="#ffffff"></path></g><g id="SvgjsG1066" transform="translate(421.8103312302835,185.7733778625954)"><path id="SvgjsPath1067" d="M 0 4Q 0 0 4 0L 26 0Q 30 0 30 4L 30 48Q 30 52 26 52L 4 52Q 0 52 0 48L 0 4Z" stroke="rgba(153,0,0,1)" stroke-width="1" fill-opacity="1" fill="#ffffff"></path></g><g id="SvgjsG1068"><path id="SvgjsPath1069" d="M84.33635646687696 275.7733778625954L253.0733438485803 275.7733778625954L253.0733438485803 275.7733778625954L420.01033123028355 275.7733778625954" stroke="#000000" stroke-width="1" fill="none" marker-end="url(#SvgjsMarker1070)"></path><rect id="SvgjsRect1072" width="72" height="17" x="216.17334384858032" y="267.2733778625954" fill="#ffffff"></rect><text id="SvgjsText1073" font-family="&quot;Microsoft YaHei&quot;, 微软雅黑, Arial" text-anchor="middle" font-size="12px" width="72px" fill="#323232" font-weight="700" align="top" lineHeight="15px" anchor="middle" family="&quot;Microsoft YaHei&quot;, 微软雅黑, Arial" size="12px" weight="700" font-style="" opacity="1" y="264.7733778625954" transform="rotate(0)"><tspan id="SvgjsTspan1074" dy="15" x="252.17334384858032"><tspan id="SvgjsTspan1075" style="">change.Next</tspan></tspan></text></g><g id="SvgjsG1076"><path id="SvgjsPath1077" d="M421.83635646687696 303.7733778625954L253.33635646687696 303.7733778625954L253.33635646687696 303.7733778625954L86.13635646687698 303.7733778625954" stroke-dasharray="5,2" stroke="#cc6600" stroke-width="1" fill="none" marker-end="url(#SvgjsMarker1078)"></path><rect id="SvgjsRect1080" width="123" height="17" x="192.4863564668769" y="295.2733778625954" fill="#ffffff"></rect><text id="SvgjsText1081" font-family="&quot;Microsoft YaHei&quot;, 微软雅黑, Arial" text-anchor="middle" font-size="12px" width="123px" fill="#323232" font-weight="700" align="top" lineHeight="15px" anchor="middle" family="&quot;Microsoft YaHei&quot;, 微软雅黑, Arial" size="12px" weight="700" font-style="" opacity="1" y="292.7733778625954" transform="rotate(0)"><tspan id="SvgjsTspan1082" dy="15" x="253.9863564668769"><tspan id="SvgjsTspan1083" style="">data, tombstone, hint</tspan></tspan></text></g><g id="SvgjsG1084" transform="translate(421.8103312302835,265.7733778625954)"><path id="SvgjsPath1085" d="M 0 4Q 0 0 4 0L 26 0Q 30 0 30 4L 30 48Q 30 52 26 52L 4 52Q 0 52 0 48L 0 4Z" stroke="rgba(153,0,0,1)" stroke-width="1" fill-opacity="1" fill="#ffffff"></path></g><g id="SvgjsG1086"><path id="SvgjsPath1087" d="M84.33635646687685 444.7733778625954L253.07334384858018 444.7733778625954L253.07334384858018 444.7733778625954L420.01033123028355 444.7733778625954" stroke="#000000" stroke-width="1" fill="none" marker-end="url(#SvgjsMarker1088)"></path><rect id="SvgjsRect1090" width="72" height="17" x="216.17334384858026" y="436.2733778625954" fill="#ffffff"></rect><text id="SvgjsText1091" font-family="&quot;Microsoft YaHei&quot;, 微软雅黑, Arial" text-anchor="middle" font-size="12px" width="72px" fill="#323232" font-weight="700" align="top" lineHeight="15px" anchor="middle" family="&quot;Microsoft YaHei&quot;, 微软雅黑, Arial" size="12px" weight="700" font-style="" opacity="1" y="433.7733778625954" transform="rotate(0)"><tspan id="SvgjsTspan1092" dy="15" x="252.17334384858026"><tspan id="SvgjsTspan1093" style="">change.Next</tspan></tspan></text></g><g id="SvgjsG1094"><path id="SvgjsPath1095" d="M421.83635646687685 472.7733778625954L253.33635646687696 472.7733778625954L253.33635646687696 472.7733778625954L86.13635646687698 472.7733778625954" stroke-dasharray="5,2" stroke="#cc6600" stroke-width="1" fill="none" marker-end="url(#SvgjsMarker1096)"></path><rect id="SvgjsRect1098" width="123" height="17" x="192.48635646687686" y="464.2733778625954" fill="#ffffff"></rect><text id="SvgjsText1099" font-family="&quot;Microsoft YaHei&quot;, 微软雅黑, Arial" text-anchor="middle" font-size="12px" width="123px" fill="#323232" font-weight="700" align="top" lineHeight="15px" anchor="middle" family="&quot;Microsoft YaHei&quot;, 微软雅黑, Arial" size="12px" weight="700" font-style="" opacity="1" y="461.7733778625954" transform="rotate(0)"><tspan id="SvgjsTspan1100" dy="15" x="253.98635646687686"><tspan id="SvgjsTspan1101" style="">data, tombstone, hint</tspan></tspan></text></g><g id="SvgjsG1102" transform="translate(421.8103312302835,434.7733778625954)"><path id="SvgjsPath1103" d="M 0 4Q 0 0 4 0L 26 0Q 30 0 30 4L 30 48Q 30 52 26 52L 4 52Q 0 52 0 48L 0 4Z" stroke="rgba(153,0,0,1)" stroke-width="1" fill-opacity="1" fill="#ffffff"></path></g><g id="SvgjsG1104" transform="translate(160.33635646687696,360.7733778625954)"><path id="SvgjsPath1105" d="M 0 0L 100 0L 100 40L 0 40Z" stroke="none" fill="none"></path><g id="SvgjsG1106"><text id="SvgjsText1107" font-family="&quot;Microsoft YaHei&quot;, 微软雅黑, Arial" text-anchor="middle" font-size="30px" width="100px" fill="#323232" font-weight="400" align="middle" lineHeight="125%" anchor="middle" family="&quot;Microsoft YaHei&quot;, 微软雅黑, Arial" size="30px" weight="400" font-style="" opacity="1" y="-5.75" transform="rotate(0)"><tspan id="SvgjsTspan1108" dy="37.5" x="50"><tspan id="SvgjsTspan1109" style="font-weight: bold;">...</tspan></tspan></text></g></g><g id="SvgjsG1110" transform="translate(91.64313880126178,317.7733778625954)"><path id="SvgjsPath1111" d="M 0 0L 100 0L 100 40L 0 40Z" stroke="none" fill="none"></path><g id="SvgjsG1112"><text id="SvgjsText1113" font-family="&quot;Microsoft YaHei&quot;, 微软雅黑, Arial" text-anchor="middle" font-size="13px" width="100px" fill="#323232" font-weight="400" align="middle" lineHeight="125%" anchor="middle" family="&quot;Microsoft YaHei&quot;, 微软雅黑, Arial" size="13px" weight="400" font-style="" opacity="1" y="9.375" transform="rotate(0)"><tspan id="SvgjsTspan1114" dy="16.25" x="50"><tspan id="SvgjsTspan1115" style="">append</tspan></tspan></text></g></g><g id="SvgjsG1116"><path id="SvgjsPath1117" d="M84.83635646687696 326.7733778625954L114.33635646687696 326.7733778625954L114.33635646687696 354.7733778625954L86.78635646687695 354.7733778625954" stroke="#323232" stroke-width="1.5" fill="none" marker-end="url(#SvgjsMarker1118)"></path></g><g id="SvgjsG1120"><path id="SvgjsPath1121" d="M85.51380126182971 490.7733778625954L115.01380126182971 490.7733778625954L115.01380126182971 518.7733778625955L87.4638012618297 518.7733778625955" stroke="#323232" stroke-width="1.5" fill="none" marker-end="url(#SvgjsMarker1122)"></path></g><g id="SvgjsG1124" transform="translate(91.64313880126178,482.7733778625954)"><path id="SvgjsPath1125" d="M 0 0L 100 0L 100 40L 0 40Z" stroke="none" fill="none"></path><g id="SvgjsG1126"><text id="SvgjsText1127" font-family="&quot;Microsoft YaHei&quot;, 微软雅黑, Arial" text-anchor="middle" font-size="13px" width="100px" fill="#323232" font-weight="400" align="middle" lineHeight="125%" anchor="middle" family="&quot;Microsoft YaHei&quot;, 微软雅黑, Arial" size="13px" weight="400" font-style="" opacity="1" y="9.375" transform="rotate(0)"><tspan id="SvgjsTspan1128" dy="16.25" x="50"><tspan id="SvgjsTspan1129" style="">append</tspan></tspan></text></g></g><g id="SvgjsG1130"><path id="SvgjsPath1131" d="M84.83635646687696 603.7733778625955L315.33635646687696 603.7733778625955L315.33635646687696 603.7733778625955L546.336356466877 603.7733778625955" stroke="#323232" stroke-width="1.5" fill="none" marker-end="url(#SvgjsMarker1132)"></path><rect id="SvgjsRect1134" width="66" height="18" x="260.676760507281" y="594.7733778625955" fill="#ffffff"></rect><text id="SvgjsText1135" font-family="&quot;Microsoft YaHei&quot;, 微软雅黑, Arial" text-anchor="middle" font-size="13px" width="66px" fill="#323232" font-weight="700" align="top" lineHeight="16px" anchor="middle" family="&quot;Microsoft YaHei&quot;, 微软雅黑, Arial" size="13px" weight="700" font-style="" opacity="1" y="592.1483778625955" transform="rotate(0)"><tspan id="SvgjsTspan1136" dy="16.25" x="293.676760507281"><tspan id="SvgjsTspan1137" style="">Sinker.Sink</tspan></tspan></text></g><g id="SvgjsG1138"></g></svg>