<svg viewBox="0 0 1200 430" xmlns="http://www.w3.org/2000/svg" font-family="-apple-system,'Segoe UI',Roboto,'PingFang SC','Microsoft YaHei',Arial,sans-serif">
  <defs>
    <pattern id="g" width="40" height="40" patternUnits="userSpaceOnUse"><path d="M40 0H0V40" fill="none" stroke="#161B22" stroke-width="1"/></pattern>
    <marker id="arr" markerWidth="8" markerHeight="8" refX="6" refY="3" orient="auto"><path d="M0 0L6 3L0 6Z" fill="#6E7681"/></marker>
    <marker id="arrL" markerWidth="9" markerHeight="9" refX="7" refY="3" orient="auto"><path d="M0 0L7 3L0 6Z" fill="#79C0FF"/></marker>
    <marker id="arrP" markerWidth="9" markerHeight="9" refX="7" refY="3" orient="auto"><path d="M0 0L7 3L0 6Z" fill="#A371F7"/></marker>
    <style>.mono{font-family:ui-monospace,'SF Mono',Menlo,Consolas,monospace;} .h{fill:#E6EDF3;} .m{fill:#9DA7B3;} .dim{fill:#6E7681;}</style>
  </defs>
  <rect width="1200" height="430" fill="#0D1117"/><rect width="1200" height="430" fill="url(#g)"/>
  <text x="44" y="42" class="h" font-size="22" font-weight="700">多人标注：每人一条分支，冲突自动暴露，只把裁决过的行挑回主线</text>
  <text x="52" y="166" fill="#79C0FF" font-size="12.5" font-weight="700">main</text>
  <line x1="118" y1="160" x2="1152" y2="160" stroke="#79C0FF" stroke-width="2.5"/>
  <circle cx="175" cy="160" r="7" fill="#A371F7" stroke="#0D1117" stroke-width="2"/>
  <text x="175" y="136" fill="#A371F7" font-size="11.5" text-anchor="middle" font-weight="700">snapshot · 标注前状态</text>
  <path d="M262 160 C 288 160, 300 132, 300 96 L 620 96" fill="none" stroke="#3FB950" stroke-width="2"/>
  <path d="M620 96 C 645 96, 655 128, 655 158" fill="none" stroke="#3FB950" stroke-width="2"/>
  <circle cx="390" cy="96" r="5" fill="#3FB950"/><circle cx="510" cy="96" r="5" fill="#3FB950"/>
  <text x="455" y="80" class="h" font-size="12" text-anchor="middle">samples_alice · reviewer_alice</text>
  <circle cx="655" cy="160" r="7" fill="#3FB950" stroke="#0D1117" stroke-width="2"/>
  <text x="655" y="186" fill="#3FB950" font-size="11" text-anchor="middle" font-weight="700">MERGE ✓ 无冲突合入</text>
  <path d="M322 160 C 348 160, 360 192, 360 226 L 800 226" fill="none" stroke="#F0883E" stroke-width="2"/>
  <path d="M800 226 C 826 226, 840 194, 840 162" fill="none" stroke="#F0883E" stroke-width="2"/>
  <circle cx="500" cy="226" r="5" fill="#F0883E"/><circle cx="640" cy="226" r="5" fill="#F0883E"/>
  <text x="570" y="248" class="h" font-size="12" text-anchor="middle">samples_bob · reviewer_bob</text>
  <circle cx="840" cy="160" r="7" fill="#F0883E" stroke="#0D1117" stroke-width="2"/>
  <text x="852" y="136" fill="#F0883E" font-size="11" text-anchor="middle" font-weight="700">MERGE ... WHEN CONFLICT SKIP</text>
  <text x="645" y="205" fill="#F0883E" font-size="11" text-anchor="middle">两人改了同一行 → 行级冲突自动暴露</text>
  <path d="M878 160 C 904 160, 918 220, 918 288 L 1020 288" fill="none" stroke="#A371F7" stroke-width="2"/>
  <path d="M1020 288 C 1062 288, 1080 226, 1080 162" fill="none" stroke="#A371F7" stroke-width="2" stroke-dasharray="5 3" marker-end="url(#arrP)"/>
  <circle cx="975" cy="288" r="5" fill="#A371F7"/>
  <text x="969" y="310" class="h" font-size="12" text-anchor="middle">samples_review · 资深评审改判</text>
  <text x="1103" y="136" fill="#A371F7" font-size="11" text-anchor="middle" font-weight="700">PICK KEYS(争议样本)</text>
  <rect x="44" y="334" width="1112" height="74" rx="10" fill="#0F1622" stroke="#21262D" stroke-width="1.2"/>
  <text x="137" y="362" class="m" font-size="11" text-anchor="middle">标注员并行</text>
  <text x="137" y="386" fill="#3FB950" font-size="12.5" text-anchor="middle" font-weight="700" class="mono">branch</text>
  <text x="322" y="362" class="m" font-size="11" text-anchor="middle">标注前的原始状态</text>
  <text x="322" y="386" fill="#A371F7" font-size="12.5" text-anchor="middle" font-weight="700" class="mono">snapshot</text>
  <text x="507" y="362" class="m" font-size="11" text-anchor="middle">两人意见不同</text>
  <text x="507" y="386" fill="#F0883E" font-size="12.5" text-anchor="middle" font-weight="700" class="mono">merge conflict</text>
  <text x="693" y="362" class="m" font-size="11" text-anchor="middle">资深评审改判</text>
  <text x="693" y="386" fill="#A371F7" font-size="12.5" text-anchor="middle" font-weight="700" class="mono">cherry-pick</text>
  <text x="878" y="362" class="m" font-size="11" text-anchor="middle">整轮改了什么</text>
  <text x="878" y="386" fill="#79C0FF" font-size="12.5" text-anchor="middle" font-weight="700" class="mono">diff</text>
  <text x="1063" y="362" class="m" font-size="11" text-anchor="middle">整轮作废重来</text>
  <text x="1063" y="386" fill="#79C0FF" font-size="12.5" text-anchor="middle" font-weight="700" class="mono">restore</text>
</svg>
