<svg viewBox="0 0 1200 440" xmlns="http://www.w3.org/2000/svg" font-family="-apple-system,'Segoe UI',Roboto,'PingFang SC','Microsoft YaHei',Arial,sans-serif">
  <defs>
    <pattern id="g" width="40" height="40" patternUnits="userSpaceOnUse"><path d="M40 0H0V40" fill="none" stroke="#161B22" stroke-width="1"/></pattern>
    <style>.mono{font-family:ui-monospace,'SF Mono',Menlo,Consolas,monospace;} .h{fill:#E6EDF3;} .m{fill:#9DA7B3;} .dim{fill:#6E7681;}</style>
  </defs>
  <rect width="1200" height="440" fill="#0D1117"/><rect width="1200" height="440" fill="url(#g)"/>
  <text x="70" y="46" class="h" font-size="23" font-weight="700">每轮处理的行数：全量重训 vs 只训增量（6 轮）</text>

  <!-- axes -->
  <line x1="120" y1="340" x2="1080" y2="340" stroke="#30363D" stroke-width="1.5"/>
  <line x1="120" y1="90" x2="120" y2="340" stroke="#30363D" stroke-width="1.5"/>
  <text x="104" y="100" class="dim" font-size="11" text-anchor="end">行数</text>

  <!-- bars: 6 rounds; full=orange rises 1000..6000, incr=green flat ~1000. scale 0.04px/row -->
  <!-- round groups centered at 200 + 160*i -->
  <g>
    <!-- r1 -->
    <rect x="154" y="300" width="42" height="40"  fill="#F0883E" opacity="0.9"/>
    <rect x="204" y="300" width="42" height="40"  fill="#3FB950" opacity="0.9"/>
    <text x="200" y="360" class="dim" font-size="12" text-anchor="middle">第1轮</text>
    <!-- r2 -->
    <rect x="314" y="260" width="42" height="80"  fill="#F0883E" opacity="0.9"/>
    <rect x="364" y="300" width="42" height="40"  fill="#3FB950" opacity="0.9"/>
    <text x="360" y="360" class="dim" font-size="12" text-anchor="middle">第2轮</text>
    <!-- r3 -->
    <rect x="474" y="220" width="42" height="120" fill="#F0883E" opacity="0.9"/>
    <rect x="524" y="300" width="42" height="40"  fill="#3FB950" opacity="0.9"/>
    <text x="520" y="360" class="dim" font-size="12" text-anchor="middle">第3轮</text>
    <!-- r4 -->
    <rect x="634" y="180" width="42" height="160" fill="#F0883E" opacity="0.9"/>
    <rect x="684" y="300" width="42" height="40"  fill="#3FB950" opacity="0.9"/>
    <text x="680" y="360" class="dim" font-size="12" text-anchor="middle">第4轮</text>
    <!-- r5 -->
    <rect x="794" y="140" width="42" height="200" fill="#F0883E" opacity="0.9"/>
    <rect x="844" y="300" width="42" height="40"  fill="#3FB950" opacity="0.9"/>
    <text x="840" y="360" class="dim" font-size="12" text-anchor="middle">第5轮</text>
    <!-- r6 -->
    <rect x="954" y="100" width="42" height="240" fill="#F0883E" opacity="0.9"/>
    <text x="975" y="92" fill="#F0883E" font-size="11" text-anchor="middle">6000</text>
    <rect x="1004" y="300" width="42" height="40" fill="#3FB950" opacity="0.9"/>
    <text x="1025" y="292" fill="#3FB950" font-size="11" text-anchor="middle">1000</text>
    <text x="1000" y="360" class="dim" font-size="12" text-anchor="middle">第6轮</text>
  </g>

  <!-- legend -->
  <rect x="150" y="386" width="18" height="14" fill="#F0883E"/>
  <text x="176" y="398" class="m" font-size="13">全量重训（每轮处理整张表）→ 6 轮累计 <tspan class="h" font-weight="700">21,000</tspan> 行</text>
  <rect x="620" y="386" width="18" height="14" fill="#3FB950"/>
  <text x="646" y="398" class="m" font-size="13">只训增量（每轮只处理当轮变化）→ 6 轮累计 <tspan class="h" font-weight="700">6,004</tspan> 行</text>

  <text x="1080" y="200" fill="#F0883E" font-size="13" text-anchor="end" font-weight="700">↑ 累计成本二次增长</text>
  <text x="1080" y="322" fill="#3FB950" font-size="13" text-anchor="end" font-weight="700">增量始终 ~1000/轮</text>
</svg>
